<mxfile host="app.diagrams.net" modified="2024-02-16T10:39:26.662Z" agent="Mozilla/5.0 (Windows NT 10.0; Win64; x64) AppleWebKit/537.36 (KHTML, like Gecko) Chrome/121.0.0.0 Safari/537.36" etag="n7y5Kfy6dGEPaWW__GzT" version="23.1.5" type="device">
  <diagram name="Страница — 1" id="BZDfdUfuSneJXJ3x43je">
    <mxGraphModel dx="1050" dy="530" grid="1" gridSize="10" guides="1" tooltips="1" connect="1" arrows="1" fold="1" page="1" pageScale="1" pageWidth="827" pageHeight="1169" math="0" shadow="0">
      <root>
        <mxCell id="0" />
        <mxCell id="1" parent="0" />
        <mxCell id="ScfSL1LQ6SKusNXreCff-3" style="edgeStyle=orthogonalEdgeStyle;rounded=0;orthogonalLoop=1;jettySize=auto;html=1;exitX=1;exitY=0.5;exitDx=0;exitDy=0;entryX=0;entryY=0.5;entryDx=0;entryDy=0;" parent="1" source="ScfSL1LQ6SKusNXreCff-1" target="ScfSL1LQ6SKusNXreCff-2" edge="1">
          <mxGeometry relative="1" as="geometry" />
        </mxCell>
        <mxCell id="ScfSL1LQ6SKusNXreCff-1" value="" style="ellipse;whiteSpace=wrap;html=1;aspect=fixed;fillColor=#000000;" parent="1" vertex="1">
          <mxGeometry y="240" width="40" height="40" as="geometry" />
        </mxCell>
        <mxCell id="ScfSL1LQ6SKusNXreCff-7" style="edgeStyle=orthogonalEdgeStyle;rounded=0;orthogonalLoop=1;jettySize=auto;html=1;exitX=1;exitY=0.5;exitDx=0;exitDy=0;entryX=0;entryY=0.5;entryDx=0;entryDy=0;" parent="1" source="ScfSL1LQ6SKusNXreCff-2" target="ScfSL1LQ6SKusNXreCff-5" edge="1">
          <mxGeometry relative="1" as="geometry" />
        </mxCell>
        <mxCell id="ScfSL1LQ6SKusNXreCff-2" value="" style="rounded=1;whiteSpace=wrap;html=1;fillColor=#FFD4A3;" parent="1" vertex="1">
          <mxGeometry x="120" y="230" width="120" height="60" as="geometry" />
        </mxCell>
        <mxCell id="ScfSL1LQ6SKusNXreCff-4" value="Форма входа" style="text;strokeColor=none;align=center;fillColor=none;html=1;verticalAlign=middle;whiteSpace=wrap;rounded=0;fontSize=14;" parent="1" vertex="1">
          <mxGeometry x="135" y="235" width="90" height="50" as="geometry" />
        </mxCell>
        <mxCell id="ScfSL1LQ6SKusNXreCff-22" style="edgeStyle=orthogonalEdgeStyle;rounded=0;orthogonalLoop=1;jettySize=auto;html=1;exitX=0.5;exitY=1;exitDx=0;exitDy=0;entryX=0.5;entryY=0;entryDx=0;entryDy=0;" parent="1" source="ScfSL1LQ6SKusNXreCff-5" target="ScfSL1LQ6SKusNXreCff-10" edge="1">
          <mxGeometry relative="1" as="geometry" />
        </mxCell>
        <mxCell id="ScfSL1LQ6SKusNXreCff-5" value="" style="rounded=1;whiteSpace=wrap;html=1;" parent="1" vertex="1">
          <mxGeometry x="460" y="230" width="120" height="60" as="geometry" />
        </mxCell>
        <mxCell id="ScfSL1LQ6SKusNXreCff-8" value="Нажатие кнопки &quot;Войти&quot;" style="text;strokeColor=none;align=center;fillColor=none;html=1;verticalAlign=middle;whiteSpace=wrap;rounded=0;fontSize=14;" parent="1" vertex="1">
          <mxGeometry x="250" y="230" width="190" height="30" as="geometry" />
        </mxCell>
        <mxCell id="K4ChH4MwkPa1pe0NdoYG-6" style="edgeStyle=orthogonalEdgeStyle;rounded=0;orthogonalLoop=1;jettySize=auto;html=1;exitX=1;exitY=0.5;exitDx=0;exitDy=0;entryX=0;entryY=0.5;entryDx=0;entryDy=0;" parent="1" source="ScfSL1LQ6SKusNXreCff-9" target="K4ChH4MwkPa1pe0NdoYG-5" edge="1">
          <mxGeometry relative="1" as="geometry" />
        </mxCell>
        <mxCell id="ScfSL1LQ6SKusNXreCff-9" value="Валидация данных на клиенте" style="text;strokeColor=none;align=center;fillColor=none;html=1;verticalAlign=middle;whiteSpace=wrap;rounded=0;fontSize=13;" parent="1" vertex="1">
          <mxGeometry x="460" y="232.5" width="120" height="55" as="geometry" />
        </mxCell>
        <mxCell id="ScfSL1LQ6SKusNXreCff-13" style="edgeStyle=orthogonalEdgeStyle;rounded=0;orthogonalLoop=1;jettySize=auto;html=1;exitX=0;exitY=0.5;exitDx=0;exitDy=0;entryX=0.5;entryY=1;entryDx=0;entryDy=0;" parent="1" source="ScfSL1LQ6SKusNXreCff-10" target="ScfSL1LQ6SKusNXreCff-2" edge="1">
          <mxGeometry relative="1" as="geometry" />
        </mxCell>
        <mxCell id="ScfSL1LQ6SKusNXreCff-10" value="" style="rhombus;whiteSpace=wrap;html=1;" parent="1" vertex="1">
          <mxGeometry x="500" y="370" width="40" height="30" as="geometry" />
        </mxCell>
        <mxCell id="ScfSL1LQ6SKusNXreCff-12" value="[ошибка]" style="text;strokeColor=none;align=center;fillColor=none;html=1;verticalAlign=middle;whiteSpace=wrap;rounded=0;fontSize=13;" parent="1" vertex="1">
          <mxGeometry x="520" y="310" width="60" height="30" as="geometry" />
        </mxCell>
        <mxCell id="ScfSL1LQ6SKusNXreCff-18" style="edgeStyle=orthogonalEdgeStyle;rounded=0;orthogonalLoop=1;jettySize=auto;html=1;exitX=0.5;exitY=1;exitDx=0;exitDy=0;entryX=0.5;entryY=0;entryDx=0;entryDy=0;" parent="1" source="ScfSL1LQ6SKusNXreCff-15" target="ScfSL1LQ6SKusNXreCff-17" edge="1">
          <mxGeometry relative="1" as="geometry" />
        </mxCell>
        <mxCell id="ScfSL1LQ6SKusNXreCff-15" value="" style="rounded=1;whiteSpace=wrap;html=1;" parent="1" vertex="1">
          <mxGeometry x="980" y="235" width="120" height="60" as="geometry" />
        </mxCell>
        <mxCell id="K4ChH4MwkPa1pe0NdoYG-11" style="edgeStyle=orthogonalEdgeStyle;rounded=0;orthogonalLoop=1;jettySize=auto;html=1;exitX=0;exitY=0.5;exitDx=0;exitDy=0;entryX=1;entryY=0.5;entryDx=0;entryDy=0;" parent="1" source="ScfSL1LQ6SKusNXreCff-17" target="K4ChH4MwkPa1pe0NdoYG-9" edge="1">
          <mxGeometry relative="1" as="geometry" />
        </mxCell>
        <mxCell id="ScfSL1LQ6SKusNXreCff-17" value="" style="rhombus;whiteSpace=wrap;html=1;" parent="1" vertex="1">
          <mxGeometry x="1020" y="370" width="40" height="30" as="geometry" />
        </mxCell>
        <mxCell id="ScfSL1LQ6SKusNXreCff-20" value="[ошибка]" style="text;strokeColor=none;align=center;fillColor=none;html=1;verticalAlign=middle;whiteSpace=wrap;rounded=0;fontSize=13;" parent="1" vertex="1">
          <mxGeometry x="1215" y="320" width="60" height="30" as="geometry" />
        </mxCell>
        <mxCell id="ScfSL1LQ6SKusNXreCff-21" value="Валидация данных на сервере" style="text;strokeColor=none;align=center;fillColor=none;html=1;verticalAlign=middle;whiteSpace=wrap;rounded=0;fontSize=13;" parent="1" vertex="1">
          <mxGeometry x="980" y="237.5" width="120" height="57.5" as="geometry" />
        </mxCell>
        <mxCell id="ScfSL1LQ6SKusNXreCff-27" style="edgeStyle=orthogonalEdgeStyle;rounded=0;orthogonalLoop=1;jettySize=auto;html=1;exitX=1;exitY=0.5;exitDx=0;exitDy=0;entryX=0;entryY=0.5;entryDx=0;entryDy=0;" parent="1" edge="1">
          <mxGeometry relative="1" as="geometry">
            <mxPoint x="1100" y="264.5" as="sourcePoint" />
            <mxPoint x="1260" y="264.5" as="targetPoint" />
          </mxGeometry>
        </mxCell>
        <mxCell id="ScfSL1LQ6SKusNXreCff-29" value="" style="rounded=1;whiteSpace=wrap;html=1;" parent="1" vertex="1">
          <mxGeometry x="1260" y="235" width="120" height="60" as="geometry" />
        </mxCell>
        <mxCell id="ScfSL1LQ6SKusNXreCff-30" value="" style="endArrow=classic;html=1;rounded=0;exitX=0.137;exitY=1.027;exitDx=0;exitDy=0;exitPerimeter=0;entryX=1;entryY=0.5;entryDx=0;entryDy=0;" parent="1" source="ScfSL1LQ6SKusNXreCff-29" target="ScfSL1LQ6SKusNXreCff-17" edge="1">
          <mxGeometry width="50" height="50" relative="1" as="geometry">
            <mxPoint x="620" y="300" as="sourcePoint" />
            <mxPoint x="670" y="250" as="targetPoint" />
            <Array as="points">
              <mxPoint x="1276" y="385" />
            </Array>
          </mxGeometry>
        </mxCell>
        <mxCell id="ScfSL1LQ6SKusNXreCff-31" value="[ошибка]" style="text;strokeColor=none;align=center;fillColor=none;html=1;verticalAlign=middle;whiteSpace=wrap;rounded=0;fontSize=13;" parent="1" vertex="1">
          <mxGeometry x="980" y="310" width="60" height="30" as="geometry" />
        </mxCell>
        <mxCell id="ScfSL1LQ6SKusNXreCff-32" value="[успех]" style="text;strokeColor=none;align=center;fillColor=none;html=1;verticalAlign=middle;whiteSpace=wrap;rounded=0;fontSize=14;" parent="1" vertex="1">
          <mxGeometry x="1120" y="232.5" width="110" height="30" as="geometry" />
        </mxCell>
        <mxCell id="ScfSL1LQ6SKusNXreCff-35" style="edgeStyle=orthogonalEdgeStyle;rounded=0;orthogonalLoop=1;jettySize=auto;html=1;exitX=0.5;exitY=1;exitDx=0;exitDy=0;entryX=0.5;entryY=0;entryDx=0;entryDy=0;" parent="1" edge="1">
          <mxGeometry relative="1" as="geometry">
            <mxPoint x="1320" y="295" as="sourcePoint" />
            <mxPoint x="1320.5" y="575" as="targetPoint" />
            <Array as="points">
              <mxPoint x="1320.5" y="485" />
              <mxPoint x="1320.5" y="485" />
            </Array>
          </mxGeometry>
        </mxCell>
        <mxCell id="ScfSL1LQ6SKusNXreCff-33" value="Проверка учётной записи" style="text;strokeColor=none;align=center;fillColor=none;html=1;verticalAlign=middle;whiteSpace=wrap;rounded=0;fontSize=13;" parent="1" vertex="1">
          <mxGeometry x="1265" y="230" width="110" height="70" as="geometry" />
        </mxCell>
        <mxCell id="ScfSL1LQ6SKusNXreCff-34" value="" style="rounded=1;whiteSpace=wrap;html=1;fillColor=#FFD4A3;" parent="1" vertex="1">
          <mxGeometry x="1260" y="580" width="120" height="60" as="geometry" />
        </mxCell>
        <mxCell id="ScfSL1LQ6SKusNXreCff-36" value="Личный кабинет" style="text;strokeColor=none;align=center;fillColor=none;html=1;verticalAlign=middle;whiteSpace=wrap;rounded=0;fontSize=14;" parent="1" vertex="1">
          <mxGeometry x="1275" y="580" width="90" height="60" as="geometry" />
        </mxCell>
        <mxCell id="ScfSL1LQ6SKusNXreCff-37" value="[успех]" style="text;strokeColor=none;align=center;fillColor=none;html=1;verticalAlign=middle;whiteSpace=wrap;rounded=0;fontSize=14;" parent="1" vertex="1">
          <mxGeometry x="860" y="230" width="110" height="30" as="geometry" />
        </mxCell>
        <mxCell id="K4ChH4MwkPa1pe0NdoYG-12" style="edgeStyle=orthogonalEdgeStyle;rounded=0;orthogonalLoop=1;jettySize=auto;html=1;exitX=0.5;exitY=1;exitDx=0;exitDy=0;entryX=0.5;entryY=0;entryDx=0;entryDy=0;" parent="1" source="K4ChH4MwkPa1pe0NdoYG-5" target="K4ChH4MwkPa1pe0NdoYG-9" edge="1">
          <mxGeometry relative="1" as="geometry" />
        </mxCell>
        <mxCell id="K4ChH4MwkPa1pe0NdoYG-5" value="" style="rounded=1;whiteSpace=wrap;html=1;" parent="1" vertex="1">
          <mxGeometry x="740" y="230" width="120" height="60" as="geometry" />
        </mxCell>
        <mxCell id="K4ChH4MwkPa1pe0NdoYG-7" style="edgeStyle=orthogonalEdgeStyle;rounded=0;orthogonalLoop=1;jettySize=auto;html=1;exitX=1;exitY=0.5;exitDx=0;exitDy=0;entryX=-0.021;entryY=0.376;entryDx=0;entryDy=0;entryPerimeter=0;" parent="1" source="K4ChH4MwkPa1pe0NdoYG-5" target="ScfSL1LQ6SKusNXreCff-21" edge="1">
          <mxGeometry relative="1" as="geometry" />
        </mxCell>
        <mxCell id="K4ChH4MwkPa1pe0NdoYG-10" style="edgeStyle=orthogonalEdgeStyle;rounded=0;orthogonalLoop=1;jettySize=auto;html=1;exitX=0;exitY=0.5;exitDx=0;exitDy=0;entryX=1;entryY=0.5;entryDx=0;entryDy=0;" parent="1" source="K4ChH4MwkPa1pe0NdoYG-9" target="ScfSL1LQ6SKusNXreCff-10" edge="1">
          <mxGeometry relative="1" as="geometry" />
        </mxCell>
        <mxCell id="K4ChH4MwkPa1pe0NdoYG-9" value="" style="rhombus;whiteSpace=wrap;html=1;" parent="1" vertex="1">
          <mxGeometry x="780" y="370" width="40" height="30" as="geometry" />
        </mxCell>
        <mxCell id="K4ChH4MwkPa1pe0NdoYG-13" value="[ошибка]" style="text;strokeColor=none;align=center;fillColor=none;html=1;verticalAlign=middle;whiteSpace=wrap;rounded=0;fontSize=13;" parent="1" vertex="1">
          <mxGeometry x="740" y="310" width="60" height="30" as="geometry" />
        </mxCell>
        <mxCell id="K4ChH4MwkPa1pe0NdoYG-14" value="[успех]" style="text;strokeColor=none;align=center;fillColor=none;html=1;verticalAlign=middle;whiteSpace=wrap;rounded=0;fontSize=14;" parent="1" vertex="1">
          <mxGeometry x="600" y="230" width="110" height="30" as="geometry" />
        </mxCell>
        <mxCell id="K4ChH4MwkPa1pe0NdoYG-15" value="Отправка введенных данных на сервер (JSON)" style="text;strokeColor=none;align=center;fillColor=none;html=1;verticalAlign=middle;whiteSpace=wrap;rounded=0;" parent="1" vertex="1">
          <mxGeometry x="745" y="240" width="110" height="40" as="geometry" />
        </mxCell>
        <mxCell id="pLRORr_1zsn99VT8D-Nf-1" value="[успех]" style="text;strokeColor=none;align=center;fillColor=none;html=1;verticalAlign=middle;whiteSpace=wrap;rounded=0;fontSize=14;" vertex="1" parent="1">
          <mxGeometry x="1241" y="470" width="110" height="30" as="geometry" />
        </mxCell>
        <mxCell id="pLRORr_1zsn99VT8D-Nf-2" value="" style="shape=callout;whiteSpace=wrap;html=1;perimeter=calloutPerimeter;fillColor=#FFF6A8;" vertex="1" parent="1">
          <mxGeometry x="1450" y="290" width="120" height="100" as="geometry" />
        </mxCell>
        <mxCell id="pLRORr_1zsn99VT8D-Nf-3" value="Сообщение: &quot;Вход выполнен успешно&quot;" style="text;strokeColor=none;align=center;fillColor=none;html=1;verticalAlign=middle;whiteSpace=wrap;rounded=0;fontSize=13;" vertex="1" parent="1">
          <mxGeometry x="1470" y="295" width="80" height="60" as="geometry" />
        </mxCell>
        <mxCell id="pLRORr_1zsn99VT8D-Nf-4" value="" style="endArrow=classic;html=1;rounded=0;exitX=0;exitY=0;exitDx=0;exitDy=70;exitPerimeter=0;" edge="1" parent="1" source="pLRORr_1zsn99VT8D-Nf-2">
          <mxGeometry width="50" height="50" relative="1" as="geometry">
            <mxPoint x="1340" y="400" as="sourcePoint" />
            <mxPoint x="1320" y="430" as="targetPoint" />
          </mxGeometry>
        </mxCell>
      </root>
    </mxGraphModel>
  </diagram>
</mxfile>
